<svg width="4" height="18" viewBox="0 0 4 18" fill="none" xmlns="http://www.w3.org/2000/svg">
<path id="Vector" d="M0.829956 1.5C0.829956 1.89782 0.987991 2.27936 1.2693 2.56066C1.5506 2.84196 1.93213 3 2.32996 3C2.72778 3 3.10931 2.84196 3.39062 2.56066C3.67192 2.27936 3.82996 1.89782 3.82996 1.5C3.82996 1.10218 3.67192 0.720644 3.39062 0.43934C3.10931 0.158035 2.72778 0 2.32996 0C1.93213 0 1.5506 0.158035 1.2693 0.43934C0.987991 0.720644 0.829956 1.10218 0.829956 1.5ZM0.829956 16.5C0.829956 16.8978 0.987991 17.2794 1.2693 17.5607C1.5506 17.842 1.93213 18 2.32996 18C2.72778 18 3.10931 17.842 3.39062 17.5607C3.67192 17.2794 3.82996 16.8978 3.82996 16.5C3.82996 16.1022 3.67192 15.7206 3.39062 15.4393C3.10931 15.158 2.72778 15 2.32996 15C1.93213 15 1.5506 15.158 1.2693 15.4393C0.987991 15.7206 0.829956 16.1022 0.829956 16.5ZM0.829956 9C0.829956 9.39782 0.987991 9.77936 1.2693 10.0607C1.5506 10.342 1.93213 10.5 2.32996 10.5C2.72778 10.5 3.10931 10.342 3.39062 10.0607C3.67192 9.77936 3.82996 9.39782 3.82996 9C3.82996 8.60218 3.67192 8.22064 3.39062 7.93934C3.10931 7.65804 2.72778 7.5 2.32996 7.5C1.93213 7.5 1.5506 7.65804 1.2693 7.93934C0.987991 8.22064 0.829956 8.60218 0.829956 9Z" fill="#A7A7A7"/>
</svg>
