<svg width="21" height="20" viewBox="0 0 21 20" fill="none" xmlns="http://www.w3.org/2000/svg">
<path id="Vector" d="M16.83 1.99999C16.633 1.99999 16.4379 2.03879 16.2559 2.11417C16.0739 2.18956 15.9086 2.30005 15.7693 2.43933C15.63 2.57862 15.5195 2.74398 15.4441 2.92597C15.3688 3.10796 15.33 3.30301 15.33 3.49999C15.33 3.69698 15.3688 3.89203 15.4441 4.07402C15.5195 4.25601 15.63 4.42137 15.7693 4.56065C15.9086 4.69994 16.0739 4.81043 16.2559 4.88581C16.4379 4.9612 16.633 4.99999 16.83 4.99999C17.2278 4.99999 17.6093 4.84196 17.8906 4.56065C18.1719 4.27935 18.33 3.89782 18.33 3.49999C18.33 3.10217 18.1719 2.72064 17.8906 2.43933C17.6093 2.15803 17.2278 1.99999 16.83 1.99999ZM13.33 3.49999C13.3298 2.68906 13.6113 1.90324 14.1262 1.2768C14.6412 0.650362 15.3577 0.22218 16.1534 0.0654157C16.949 -0.0913489 17.7744 0.033032 18.4885 0.417307C19.2026 0.801582 19.7611 1.4219 20.0686 2.17228C20.3761 2.92266 20.4135 3.75653 20.1744 4.53141C19.9352 5.30629 19.4345 5.97409 18.7576 6.42072C18.0808 6.86735 17.2698 7.06508 16.4633 6.98014C15.6569 6.8952 14.9049 6.53284 14.336 5.95499L7.32996 9.99999L14.336 14.045C14.9258 13.446 15.7116 13.0794 16.5495 13.0121C17.3874 12.9448 18.2216 13.1813 18.8995 13.6785C19.5774 14.1756 20.0537 14.9001 20.2414 15.7196C20.429 16.539 20.3155 17.3986 19.9215 18.1412C19.5275 18.8838 18.8794 19.4598 18.0957 19.7639C17.312 20.0679 16.445 20.0798 15.6533 19.7972C14.8615 19.5147 14.1979 18.9566 13.7838 18.225C13.3697 17.4934 13.2327 16.6372 13.398 15.813L6.72796 11.963C6.30805 12.5833 5.70021 13.0525 4.9938 13.3017C4.28738 13.5509 3.51966 13.5668 2.8035 13.3472C2.08735 13.1276 1.46054 12.684 1.01523 12.0817C0.569912 11.4794 0.32959 10.7501 0.32959 10.001C0.32959 9.25192 0.569912 8.52261 1.01523 7.92028C1.46054 7.31795 2.08735 6.87438 2.8035 6.65478C3.51966 6.43518 4.28738 6.45113 4.9938 6.70029C5.70021 6.94946 6.30805 7.41868 6.72796 8.03899L13.398 4.18699C13.3528 3.96078 13.33 3.73067 13.33 3.49999ZM3.82996 8.49999C3.43214 8.49999 3.05061 8.65803 2.7693 8.93933C2.488 9.22064 2.32996 9.60217 2.32996 9.99999C2.32996 10.3978 2.488 10.7794 2.7693 11.0607C3.05061 11.342 3.43214 11.5 3.82996 11.5C4.22779 11.5 4.60932 11.342 4.89062 11.0607C5.17193 10.7794 5.32996 10.3978 5.32996 9.99999C5.32996 9.60217 5.17193 9.22064 4.89062 8.93933C4.60932 8.65803 4.22779 8.49999 3.82996 8.49999ZM16.83 15C16.633 14.9999 16.4379 15.0387 16.2559 15.114C16.0739 15.1893 15.9085 15.2997 15.7692 15.439C15.6298 15.5782 15.5193 15.7435 15.4438 15.9255C15.3684 16.1075 15.3295 16.3025 15.3295 16.4995C15.3294 16.6965 15.3681 16.8915 15.4434 17.0736C15.5188 17.2556 15.6292 17.421 15.7684 17.5603C15.9077 17.6996 16.073 17.8102 16.255 17.8856C16.4369 17.9611 16.632 17.9999 16.829 18C17.2268 18.0001 17.6084 17.8422 17.8898 17.561C18.1712 17.2798 18.3293 16.8983 18.3295 16.5005C18.3296 16.1027 18.1717 15.7211 17.8905 15.4397C17.6093 15.1583 17.2278 15.0001 16.83 15Z" fill="#A7A7A7"/>
</svg>
